<svg width="448" height="448" viewBox="0 0 448 448" xmlns="http://www.w3.org/2000/svg"><path d="M432 388H16c-8.837 0-16 7.163-16 16v16c0 8.837 7.163 16 16 16h416c8.837 0 16-7.163 16-16v-16c0-8.837-7.163-16-16-16ZM27.31 327.3l96-96c6.243-6.248 6.243-16.372 0-22.62l-96-96C17.27 102.66 0 109.78 0 124v192c0 14.31 17.33 21.3 27.31 11.3ZM435.17 132H204.83A12.82 12.82 0 0 0 192 144.83v22.34A12.82 12.82 0 0 0 204.83 180h230.34A12.82 12.82 0 0 0 448 167.17v-22.34A12.82 12.82 0 0 0 435.17 132ZM432 12H16C7.163 12 0 19.163 0 28v16c0 8.837 7.163 16 16 16h416c8.837 0 16-7.163 16-16V28c0-8.837-7.163-16-16-16Zm3.17 248H204.83A12.82 12.82 0 0 0 192 272.83v22.34A12.82 12.82 0 0 0 204.83 308h230.34A12.82 12.82 0 0 0 448 295.17v-22.34A12.82 12.82 0 0 0 435.17 260Z" fill-rule="nonzero"/></svg>
