<svg width="512" height="512" viewBox="0 0 512 512" xmlns="http://www.w3.org/2000/svg"><path d="M300 416h24c6.627 0 12-5.373 12-12V188c0-6.627-5.373-12-12-12h-24c-6.627 0-12 5.373-12 12v216c0 6.627 5.373 12 12 12ZM464 80h-82.41l-34-56.7A48 48 0 0 0 306.41 0H205.59a48.002 48.002 0 0 0-41.16 23.3L130.41 80H48c-8.837 0-16 7.163-16 16v16c0 8.837 7.163 16 16 16h16v336c0 26.51 21.49 48 48 48h288c26.51 0 48-21.49 48-48V128h16c8.837 0 16-7.163 16-16V96c0-8.837-7.163-16-16-16ZM203.84 50.91A6 6 0 0 1 209 48h94a6 6 0 0 1 5.15 2.91L325.61 80H186.39l17.45-29.09ZM400 464H112V128h288v336Zm-212-48h24c6.627 0 12-5.373 12-12V188c0-6.627-5.373-12-12-12h-24c-6.627 0-12 5.373-12 12v216c0 6.627 5.373 12 12 12Z" fill-rule="nonzero"/></svg>
