<svg width="448" height="448" viewBox="0 0 448 448" xmlns="http://www.w3.org/2000/svg"><path d="M263.39 224 445.66 41.37c3.12-3.12 3.12-8.19 0-11.31-18.74-18.74-49.14-18.74-67.88 0L223.82 184.35l-43.1-43.18C187.92 127.71 192 112.33 192 96c0-53.02-42.98-96-96-96S0 42.98 0 96s42.98 96 96 96c16.31 0 31.66-4.07 45.11-11.24L184.26 224l-43.15 43.24C127.66 260.07 112.31 256 96 256c-53.02 0-96 42.98-96 96s42.98 96 96 96 96-42.98 96-96c0-16.33-4.08-31.71-11.28-45.17l43.1-43.18 153.95 154.29c18.74 18.74 49.14 18.74 67.88 0 3.12-3.12 3.12-8.19 0-11.31L263.39 224ZM96 144c-26.47 0-48-21.53-48-48s21.53-48 48-48 48 21.53 48 48-21.53 48-48 48Zm0 256c-26.47 0-48-21.53-48-48s21.53-48 48-48 48 21.53 48 48-21.53 48-48 48Z" fill-rule="nonzero"/></svg>
