<svg width="266" height="266" viewBox="0 0 266 266" xmlns="http://www.w3.org/2000/svg"><path d="m195.864 52.89 62.225 62.225c10.154 10.154 10.154 26.616 0 36.77l-62.225 62.225c-10.154 10.154-26.616 10.154-36.77 0L133 188.016l-26.093 26.094c-10.154 10.154-26.616 10.154-36.77 0L7.911 151.885c-10.154-10.154-10.154-26.616 0-36.77L70.136 52.89c10.154-10.154 26.616-10.154 36.77 0l26.093 26.093H133l26.094-26.093c10.154-10.154 26.616-10.154 36.77 0Zm-22.627 14.142-13.928 13.927a26.073 26.073 0 0 1 4.735 3.75l30.406 30.406c10.153 10.154 10.153 26.616 0 36.77l-30.406 30.405a26.073 26.073 0 0 1-4.735 3.751l13.928 13.927a6 6 0 0 0 8.485 0l62.225-62.225a6 6 0 0 0 0-8.486l-62.225-62.225a6 6 0 0 0-8.485 0Zm-88.959 0-62.225 62.225a6 6 0 0 0 0 8.486l62.225 62.225a6 6 0 0 0 8.485 0l26.094-26.094-21.988-21.99-.302-.306a26.007 26.007 0 0 1-4.901-7.124 25.822 25.822 0 0 1-1.815-5.4l-.04-.186a26.057 26.057 0 0 1-.467-3.198l-.014-.175a26.171 26.171 0 0 1 .92-9.14 25.94 25.94 0 0 1 2.532-5.945 25.827 25.827 0 0 1 1.105-1.732l.026-.037c.079-.113.158-.225.239-.337l.063-.087c.217-.298.44-.591.671-.881l.018-.023a26.1 26.1 0 0 1 1.965-2.198l21.988-21.99-26.094-26.093a6 6 0 0 0-8.485 0Zm57.139 31.82-16.265 16.263-14.14 14.142a6.05 6.05 0 0 0-.656.776l-.13.191a5.968 5.968 0 0 0-.138.222l.081-.134a5.955 5.955 0 0 0-.615 1.309l.027-.077a5.994 5.994 0 0 0-.31 1.502l.01-.11a6.04 6.04 0 0 0-.02.257l.01-.147c-.006.074-.01.148-.013.223l.004-.076c-.004.075-.007.15-.008.224l.004-.148a6.037 6.037 0 0 0-.004.231v-.083c0 .081 0 .162.002.243l-.002-.16c0 .086.002.172.005.257l-.003-.097c.002.078.005.155.01.232l-.007-.135c.004.093.01.186.019.278l-.012-.143c.005.076.012.15.02.226l-.008-.083c.006.071.013.142.022.213l-.015-.13c.009.083.019.166.031.25l.019.118.018.106-.017-.1a5.987 5.987 0 0 0 .442 1.467l-.029-.068a5.956 5.956 0 0 0 .63 1.11l-.029-.042c.049.069.099.137.15.204l-.12-.161c.048.066.097.132.148.197l-.028-.036.138.172-.11-.136c.06.076.12.15.184.223l-.074-.087c.056.066.113.132.172.197l-.098-.11c.052.06.106.12.162.179l-.064-.07c.052.058.105.114.16.17l.104.106 14.08 14.078 16.263 16.263a6 6 0 0 0 8.485 0l30.406-30.405a6 6 0 0 0 0-8.486l-30.406-30.405a6 6 0 0 0-8.485 0Z" fill-rule="nonzero"/></svg>
