<svg width="576" height="576" viewBox="0 0 576 576" xmlns="http://www.w3.org/2000/svg"><path d="M561.938 190.06 417.94 46.092C387.926 16.078 336 37.097 336 80.032v57.198c-42.45 1.88-84.03 6.55-120.76 17.99-35.17 10.95-63.07 27.58-82.91 49.42C108.22 231.2 96 264.6 96 303.94c0 61.697 33.178 112.455 84.87 144.76 37.546 23.508 85.248-12.65 71.02-55.74-15.515-47.119-17.156-70.923 84.11-78.76V368c0 42.993 51.968 63.913 81.94 33.94l143.998-144c18.75-18.74 18.75-49.14 0-67.88ZM384 368V264.16C255.309 266.082 166.492 287.35 206.31 408 176.79 389.55 144 356.08 144 303.94c0-109.334 129.14-118.947 240-119.85V80l144 144-144 144Zm24.74 84.493a82.658 82.658 0 0 0 20.974-9.303c7.976-4.952 18.286.826 18.286 10.214V496c0 26.51-21.49 48-48 48H48c-26.51 0-48-21.49-48-48V144c0-26.51 21.49-48 48-48h132c6.627 0 12 5.373 12 12v4.486c0 4.917-2.987 9.37-7.569 11.152-13.702 5.331-26.396 11.537-38.05 18.585a12.138 12.138 0 0 1-6.28 1.777H54a6 6 0 0 0-6 6v340a6 6 0 0 0 6 6h340a6 6 0 0 0 6-6v-25.966c0-5.37 3.579-10.059 8.74-11.54Z" fill-rule="nonzero"/></svg>
