<svg width="360" height="360" viewBox="0 0 360 360" xmlns="http://www.w3.org/2000/svg" xmlns:xlink="http://www.w3.org/1999/xlink"><defs><filter x="-11.7%" y="-8.1%" width="126.6%" height="121.2%" filterUnits="objectBoundingBox" id="a"><feOffset dx="2" dy="4" in="SourceAlpha" result="shadowOffsetOuter1"/><feGaussianBlur stdDeviation="5" in="shadowOffsetOuter1" result="shadowBlurOuter1"/><feColorMatrix values="0 0 0 0 0 0 0 0 0 0.515431297 0 0 0 0 0.685785708 0 0 0 0.15 0" in="shadowBlurOuter1"/></filter><filter x="-13%" y="-13%" width="126.1%" height="126.1%" filterUnits="objectBoundingBox" id="e"><feGaussianBlur stdDeviation="4" in="SourceGraphic"/></filter><filter x="-11.7%" y="-8.1%" width="126.6%" height="121.2%" filterUnits="objectBoundingBox" id="g"><feOffset dx="2" dy="4" in="SourceAlpha" result="shadowOffsetOuter1"/><feGaussianBlur stdDeviation="5" in="shadowOffsetOuter1" result="shadowBlurOuter1"/><feColorMatrix values="0 0 0 0 0 0 0 0 0 0.634903488 0 0 0 0 0.704961804 0 0 0 0.15 0" in="shadowBlurOuter1"/></filter><filter x="-26.1%" y="-26.1%" width="152.2%" height="152.2%" filterUnits="objectBoundingBox" id="k"><feGaussianBlur stdDeviation="8" in="SourceGraphic"/></filter><filter x="-39.5%" y="-39.5%" width="178.9%" height="178.9%" filterUnits="objectBoundingBox" id="n"><feGaussianBlur stdDeviation="10" in="SourceGraphic"/></filter><linearGradient x1="50%" y1="9.697%" x2="50%" y2="85.407%" id="c"><stop stop-color="#38EFFF" offset="0%"/><stop stop-color="#13A7EF" offset="100%"/></linearGradient><linearGradient x1="50%" y1="14.144%" x2="50%" y2="83.837%" id="i"><stop stop-color="#008497" offset="0%"/><stop stop-color="#0EC7DF" offset="100%"/></linearGradient><linearGradient x1="50%" y1="0%" x2="50%" y2="100%" id="m"><stop stop-color="#0EAFA4" offset="0%"/><stop stop-color="#005E70" offset="100%"/></linearGradient><linearGradient x1="50%" y1="0%" x2="50%" y2="100%" id="o"><stop stop-color="#2CFFF0" offset="0%"/><stop stop-color="#00D5FF" offset="100%"/></linearGradient><path d="m80 0 48 48-32 32 32 32-48 48L0 80 80 0Z" id="b"/><path id="d" d="m80 0 80 80-80 80L0 80z"/><path d="m176 0 80 80-80 80-48-48 32-32-32-32 48-48Z" id="h"/><path id="j" d="m80 0 80 80-80 80L0 80z"/></defs><g fill="none" fill-rule="evenodd"><g fill-rule="nonzero" transform="translate(52 100)"><use fill="#000" filter="url(#a)" xlink:href="#b"/><use fill="url(#c)" xlink:href="#b"/></g><g transform="translate(52 100)"><mask id="f" fill="#fff"><use xlink:href="#d"/></mask><use fill-opacity="0" fill="#000" fill-rule="nonzero" xlink:href="#d"/><path fill-opacity=".3" fill="#FFF" fill-rule="nonzero" style="mix-blend-mode:soft-light" filter="url(#e)" mask="url(#f)" d="m80 4 76 76-16 16-76-76z"/></g><g fill-rule="nonzero" transform="translate(52 100)"><use fill="#000" filter="url(#g)" xlink:href="#h"/><use fill="url(#i)" xlink:href="#h"/></g><g transform="translate(148 100)"><mask id="l" fill="#fff"><use xlink:href="#j"/></mask><use fill-opacity="0" fill="#000" fill-rule="nonzero" xlink:href="#j"/><path fill-opacity=".22" fill="#FFF" fill-rule="nonzero" style="mix-blend-mode:soft-light" filter="url(#k)" mask="url(#l)" d="m80 4 76 76-16 16-76-76z"/></g><path d="m136 46 38 38-38 38-38-38 38-38Z" fill-opacity=".2" fill="url(#m)" fill-rule="nonzero" filter="url(#n)" transform="translate(52 100)"/><path d="m134 42 38 38-38 38-38-38 38-38Z" fill="url(#o)" fill-rule="nonzero" transform="translate(52 100)"/></g></svg>
